<svg width="640" height="480" viewBox="0 0 640 480" xmlns="http://www.w3.org/2000/svg" preserveAspectRatio="none"> <style> :root { opacity: 0.27; } path { fill: #000000; stroke: none; stroke-width: 0; vector-effect: non-scaling-stroke; } path.z0 { fill: #7f7f7f } path.z1 { fill: #5e5e5e } path.z2 { fill: #3d3d3d } path.z3 { fill: #1c1c1c } </style> <path d="m 0,0 l 20,15 l 20,15 l 20,-15 l 20,15 l 20,15 l 20,-15 l 20,-15 l 20,-15 l 20,15 l 20,15 l 20,-15 l 20,15 l 20,15 l 20,-15 l 20,-15 l 20,-15 l 20,15 l 20,15 l 20,-15 l 20,15 l 20,15 l 20,-15 l 20,-15 l 20,-15 l 20,15 l 20,15 l 20,-15 l 20,15 l 20,15 l 20,-15 l 20,-15 l 20,-15 l 20,15 l 20,15 l 20,-15 l 20,15 l 20,15 l 20,-15 l 20,-15 l 20,-15 l 0,480 l -800,0" transform="translate(-3.491,113.1429)" class="z0"></path> <path d="m 0,30 l 20,-15 l 20,-15 l 20,-15 l 20,15 l 20,-15 l 20,-15 l 20,15 l 20,15 l 20,15 l 20,15 l 20,15 l 20,15 l 20,-15 l 20,-15 l 20,-15 l 20,15 l 20,-15 l 20,-15 l 20,-15 l 20,15 l 20,-15 l 20,-15 l 20,15 l 20,15 l 20,15 l 20,15 l 20,15 l 20,15 l 20,-15 l 20,-15 l 20,-15 l 20,15 l 20,-15 l 20,-15 l 20,-15 l 20,15 l 20,-15 l 20,-15 l 20,15 l 20,15 l 20,15 l 20,15 l 20,15 l 20,15 l 20,-15 l 20,-15 l 20,-15 l 20,15 l 0,450 l -960,0" transform="translate(-4.9806,175.4805)" class="z1"></path> <path d="m 0,30 l 20,-15 l 20,-15 l 20,15 l 20,15 l 20,-15 l 20,-15 l 20,-15 l 20,15 l 20,15 l 20,-15 l 20,-15 l 20,15 l 20,15 l 20,15 l 20,15 l 20,15 l 20,-15 l 20,-15 l 20,-15 l 20,-15 l 20,-15 l 20,15 l 20,-15 l 20,15 l 20,-15 l 20,15 l 20,15 l 20,15 l 20,15 l 20,-15 l 20,15 l 20,-15 l 20,-15 l 20,-15 l 20,15 l 20,15 l 20,-15 l 20,-15 l 20,-15 l 20,15 l 20,15 l 20,-15 l 20,-15 l 20,15 l 20,15 l 20,15 l 20,15 l 20,15 l 20,-15 l 20,-15 l 20,-15 l 20,-15 l 20,-15 l 20,15 l 20,-15 l 20,15 l 20,-15 l 20,15 l 20,15 l 20,15 l 20,15 l 20,-15 l 20,15 l 20,-15 l 0,450 l -1280,0" transform="translate(-18.8086,237.8182)" class="z2"></path> <path d="m 0,-30 l 20,15 l 20,15 l 20,-15 l 20,-15 l 20,15 l 20,15 l 20,15 l 20,-15 l 20,-15 l 20,-15 l 20,-15 l 20,15 l 20,-15 l 20,15 l 20,15 l 20,-15 l 20,15 l 20,15 l 20,-15 l 20,15 l 20,15 l 20,-15 l 20,-15 l 20,-15 l 20,-15 l 20,15 l 20,-15 l 20,-15 l 20,15 l 20,15 l 20,-15 l 20,15 l 20,15 l 20,15 l 20,-15 l 20,-15 l 20,15 l 20,15 l 20,15 l 20,-15 l 20,-15 l 20,-15 l 20,-15 l 20,15 l 20,-15 l 20,15 l 20,15 l 20,-15 l 20,15 l 20,15 l 20,-15 l 20,15 l 20,15 l 20,-15 l 20,-15 l 20,-15 l 20,-15 l 20,15 l 20,-15 l 20,-15 l 20,15 l 20,15 l 20,-15 l 20,15 l 0,510 l -1280,0" transform="translate(-9.3618,300.1558)" class="z3"></path> <path d="m 0,0 l 20,15 l 20,15 l 20,-15 l 20,-15 l 20,15 l 20,-15 l 20,-15 l 20,-15 l 20,15 l 20,15 l 20,-15 l 20,-15 l 20,15 l 20,-15 l 20,15 l 20,15 l 20,15 l 20,15 l 20,15 l 20,-15 l 20,15 l 20,-15 l 20,-15 l 20,15 l 20,15 l 20,-15 l 20,-15 l 20,-15 l 20,15 l 20,-15 l 20,-15 l 20,15 l 20,15 l 20,15 l 20,-15 l 20,-15 l 20,15 l 20,-15 l 20,-15 l 20,-15 l 20,15 l 20,15 l 20,-15 l 20,-15 l 20,15 l 20,-15 l 20,15 l 20,15 l 20,15 l 20,15 l 20,15 l 20,-15 l 20,15 l 20,-15 l 20,-15 l 20,15 l 20,15 l 20,-15 l 20,-15 l 20,-15 l 20,15 l 20,-15 l 20,-15 l 20,15 l 0,480 l -1280,0" transform="translate(-11.3754,362.4935)" class="z4"></path></svg>